<?xml version="1.0" standalone="no"?><!DOCTYPE svg PUBLIC "-//W3C//DTD SVG 1.1//EN" "http://www.w3.org/Graphics/SVG/1.1/DTD/svg11.dtd"><svg t="1535617766865" class="icon" style="" viewBox="0 0 1024 1024" version="1.1" xmlns="http://www.w3.org/2000/svg" p-id="1113" xmlns:xlink="http://www.w3.org/1999/xlink" width="200" height="200"><defs><style type="text/css"></style></defs><path d="M509.698306 956.552578c-245.061833 0-444.412306-199.385285-444.412306-444.448142 0-245.03214 199.351497-444.418449 444.412306-444.418449 245.062857 0 444.448142 199.356616 444.448142 444.418449-0.033788 245.061833-199.385285 444.448142-444.448142 444.448142z m0-842.128274c-219.262995 0-397.675012 178.412018-397.675013 397.680132 0 219.287568 178.412018 397.709824 397.675013 397.709825 219.293711 0 397.710848-178.422257 397.710848-397.709825-0.033788-219.268114-178.417137-397.680132-397.710848-397.680132z" fill="#ffffff" p-id="1114"></path><path d="M736.094709 735.511095c8.413266 9.814965 7.199962 24.556866-2.615003 32.940438-9.751484 8.413266-24.493385 7.195866-32.935319-2.619098-47.857424-56.085366-117.438623-88.276321-190.847105-88.276321-73.377766 0-142.953845 32.189931-190.811269 88.276321-8.412242 9.814965-23.212504 11.03134-32.940439 2.619098-9.814965-8.383573-11.027245-23.154143-2.613979-32.940438 56.77137-66.523877 139.244309-104.692274 226.365687-104.692275 87.119331 0 169.631177 38.168397 226.397427 104.692275zM369.548883 505.307886h-5.672325c-20.754156 0-37.609356-16.8552-37.609356-37.605261v-67.336842c0-20.720367 16.8552-37.580687 37.609356-37.580687h5.672325c20.720367 0 37.575568 16.86032 37.575567 37.580687v67.336842c-0.001024 20.75006-16.8552 37.60526-37.575567 37.605261zM655.521078 505.307886h-5.672325c-20.719343 0-37.574544-16.8552-37.574544-37.605261v-67.336842c0-20.720367 16.8552-37.580687 37.574544-37.580687h5.672325c20.720367 0 37.574544 16.86032 37.574543 37.580687v67.336842c0 20.75006-16.854176 37.60526-37.574543 37.605261z" fill="#ffffff" p-id="1115"></path></svg>