<?xml version="1.0" standalone="no"?><!DOCTYPE svg PUBLIC "-//W3C//DTD SVG 1.1//EN" "http://www.w3.org/Graphics/SVG/1.1/DTD/svg11.dtd"><svg t="1535620011002" class="icon" style="" viewBox="0 0 1024 1024" version="1.1" xmlns="http://www.w3.org/2000/svg" p-id="7891" xmlns:xlink="http://www.w3.org/1999/xlink" width="200" height="200"><defs><style type="text/css"></style></defs><path d="M906.24 512.512c-1.024 218.112-178.176 394.752-396.8 394.752-219.136 0-396.8-177.664-396.8-396.8 0-218.624 177.664-396.288 396.288-396.8v-51.2c-247.296 0.512-447.488 200.704-447.488 448s200.704 448 448 448c246.784 0 446.976-199.68 448-445.952h-51.2z" fill="#ffffff" p-id="7892"></path><path d="M483.328 88.064c0 14.138 11.462 25.6 25.6 25.6s25.6-11.462 25.6-25.6c0 0 0 0 0 0 0 0 0 0 0 0 0-14.138-11.462-25.6-25.6-25.6-14.138 0-25.6 11.462-25.6 25.6 0 0 0 0 0 0z" fill="#ffffff" p-id="7893"></path><path d="M906.24 513.536c0 14.138 11.462 25.6 25.6 25.6s25.6-11.462 25.6-25.6c0 0 0 0 0 0 0-14.138-11.462-25.6-25.6-25.6-14.138 0-25.6 11.462-25.6 25.6 0 0 0 0 0 0z" fill="#ffffff" p-id="7894"></path></svg>